<svg xmlns="http://www.w3.org/2000/svg">
  <defs>
    <pattern id="wp-dots" width="48" height="48" patternUnits="userSpaceOnUse">
      <circle cx="12" cy="12" r="5" fill="#DCC3D2"/>
      <circle cx="36" cy="36" r="5" fill="#DCC3D2"/>
    </pattern>
  </defs>

  <symbol id="bg-kitchen" viewBox="0 0 360 640">
    <rect width="360" height="640" fill="#F6E7C1"/>
    <rect x="0" y="250" width="360" height="130" fill="#EAD7A8"/>
    <g stroke="#DCC58F" stroke-width="2">
      <path d="M0 290 H360 M0 330 H360 M0 370 H360"/>
      <path d="M40 250 V380 M80 250 V380 M120 250 V380 M160 250 V380 M200 250 V380 M240 250 V380 M280 250 V380 M320 250 V380"/>
    </g>
    <rect x="200" y="50" width="130" height="170" rx="6" fill="#9ED8F5" stroke="#FFFFFF" stroke-width="8"/>
    <path d="M265 50 V220 M200 135 H330" stroke="#FFFFFF" stroke-width="8"/>
    <ellipse cx="240" cy="100" rx="24" ry="12" fill="#FFFFFF"/>
    <ellipse cx="300" cy="160" rx="18" ry="9" fill="#FFFFFF"/>
    <rect x="30" y="150" width="130" height="10" fill="#B07D4A" stroke="#1F1A17" stroke-width="3"/>
    <rect x="40" y="110" width="26" height="40" rx="4" fill="#D97A3E" stroke="#1F1A17" stroke-width="3"/>
    <rect x="76" y="118" width="22" height="32" rx="4" fill="#8BC34A" stroke="#1F1A17" stroke-width="3"/>
    <rect x="108" y="104" width="30" height="46" rx="4" fill="#E5C370" stroke="#1F1A17" stroke-width="3"/>
    <polygon points="60,380 300,380 360,640 0,640" fill="#D9A066"/>
    <polygon points="60,380 300,380 306,398 54,398" fill="#E8B97E"/>
    <path d="M120 420 L80 640 M240 420 L280 640 M180 400 V640" stroke="#C48C52" stroke-width="3"/>
    <path d="M60 380 H300 L360 640 M60 380 L0 640" fill="none" stroke="#1F1A17" stroke-width="4"/>
  </symbol>

  <symbol id="bg-desk" viewBox="0 0 360 640">
    <rect width="360" height="640" fill="#DCE4EC"/>
    <rect x="190" y="40" width="150" height="200" rx="4" fill="#B9D7EE" stroke="#FFFFFF" stroke-width="8"/>
    <g stroke="#F4F7FA" stroke-width="8">
      <path d="M190 60 H340 M190 80 H340 M190 100 H340 M190 120 H340 M190 140 H340 M190 160 H340 M190 180 H340 M190 200 H340 M190 220 H340"/>
    </g>
    <circle cx="80" cy="110" r="36" fill="#FFFFFF" stroke="#1F1A17" stroke-width="4"/>
    <path d="M80 110 V86 M80 110 L96 118" stroke="#1F1A17" stroke-width="4" stroke-linecap="round"/>
    <circle cx="80" cy="110" r="3" fill="#1F1A17"/>
    <rect x="40" y="200" width="44" height="44" fill="#FFF176" transform="rotate(-6 62 222)" stroke="#1F1A17" stroke-width="3"/>
    <rect x="96" y="210" width="44" height="44" fill="#FF8A80" transform="rotate(5 118 232)" stroke="#1F1A17" stroke-width="3"/>
    <path d="M50 214 h24 M50 224 h18" stroke="#1F1A17" stroke-width="2" transform="rotate(-6 62 222)"/>
    <rect x="0" y="360" width="360" height="20" fill="#C9D3DD"/>
    <polygon points="60,380 300,380 360,640 0,640" fill="#7A5230"/>
    <polygon points="60,380 300,380 306,398 54,398" fill="#8E6240"/>
    <path d="M60 380 H300 L360 640 M60 380 L0 640" fill="none" stroke="#1F1A17" stroke-width="4"/>
  </symbol>

  <symbol id="bg-living" viewBox="0 0 360 640">
    <rect width="360" height="640" fill="#E8D5E0"/>
    <rect width="360" height="380" fill="url(#wp-dots)"/>
    <rect x="50" y="60" width="120" height="90" fill="#8D6E63" stroke="#1F1A17" stroke-width="4"/>
    <rect x="62" y="72" width="96" height="66" fill="#A5D8F3"/>
    <path d="M62 138 l30 -34 l20 20 l16 -14 l30 28 Z" fill="#6AA96A"/>
    <circle cx="140" cy="88" r="8" fill="#FFD166"/>
    <rect x="210" y="130" width="120" height="10" fill="#8D6E63" stroke="#1F1A17" stroke-width="3"/>
    <rect x="220" y="90" width="16" height="40" fill="#E57373" stroke="#1F1A17" stroke-width="3"/>
    <rect x="238" y="96" width="14" height="34" fill="#64B5F6" stroke="#1F1A17" stroke-width="3"/>
    <rect x="254" y="86" width="18" height="44" fill="#FFD54F" stroke="#1F1A17" stroke-width="3"/>
    <rect x="276" y="100" width="14" height="30" fill="#81C784" stroke="#1F1A17" stroke-width="3"/>
    <rect x="0" y="364" width="360" height="16" fill="#D3BBC8"/>
    <polygon points="60,380 300,380 360,640 0,640" fill="#9C6B3F"/>
    <polygon points="60,380 300,380 306,398 54,398" fill="#B37E4C"/>
    <path d="M60 380 H300 L360 640 M60 380 L0 640" fill="none" stroke="#1F1A17" stroke-width="4"/>
  </symbol>
</svg>
