<svg xmlns="http://www.w3.org/2000/svg">
  <symbol id="obj-potion" viewBox="0 0 200 200">
    <g stroke="#1F1A17" stroke-width="4" stroke-linejoin="round" stroke-linecap="round">
      <rect x="88" y="44" width="24" height="18" rx="3" fill="#A1887F"/>
      <path d="M86 60 H114 V92 C150 104 150 180 100 180 C50 180 50 104 86 92 Z" fill="#E8DAFF"/>
      <path d="M62 136 C70 112 130 112 138 136 C140 170 120 180 100 180 C80 180 60 170 62 136 Z" fill="#9C27B0" stroke="none"/>
      <path d="M86 60 H114 V92 C150 104 150 180 100 180 C50 180 50 104 86 92 Z" fill="none"/>
      <circle cx="90" cy="150" r="5" fill="#CE93D8" stroke="none"/>
      <circle cx="110" cy="140" r="3.5" fill="#CE93D8" stroke="none"/>
      <path d="M76 110 c-6 14 -6 30 0 46" fill="none" stroke="#FFFFFF" stroke-width="4" opacity="0.6"/>
    </g>
  </symbol>

  <symbol id="obj-crystalball" viewBox="0 0 200 200">
    <g stroke="#1F1A17" stroke-width="4" stroke-linejoin="round" stroke-linecap="round">
      <path d="M60 180 h80 l-8 -16 H68 Z" fill="#B8860B"/>
      <circle cx="100" cy="106" r="58" fill="#D7E9FF"/>
      <path d="M62 112 c16 -12 30 10 46 -2 c12 -8 20 2 30 -4" fill="none" stroke="#9C27B0" stroke-width="5" opacity="0.5"/>
      <path d="M70 80 a40 40 0 0 1 18 -18" fill="none" stroke="#FFFFFF" stroke-width="5" opacity="0.8"/>
      <path d="M100 95 l3 7 7 1 -5 5 1 7 -6 -3 -6 3 1 -7 -5 -5 7 -1 Z" fill="#FFD166" stroke="none"/>
    </g>
  </symbol>

  <symbol id="obj-quill" viewBox="0 0 200 200">
    <g stroke="#1F1A17" stroke-width="4" stroke-linejoin="round" stroke-linecap="round">
      <path d="M110 150 C120 110 140 70 170 40 C150 90 140 120 118 156 Z" fill="#F5F5F5"/>
      <path d="M118 150 C130 110 148 70 168 44" fill="none" stroke-width="2"/>
      <rect x="62" y="112" width="60" height="68" rx="8" fill="#263238"/>
      <rect x="72" y="100" width="40" height="18" rx="4" fill="#546E7A"/>
      <rect x="70" y="134" width="44" height="30" rx="3" fill="#ECEFF1" stroke="none"/>
      <path d="M78 146 h28 M78 154 h18" fill="none" stroke="#546E7A" stroke-width="2"/>
    </g>
  </symbol>

  <symbol id="obj-snitch" viewBox="0 0 200 200">
    <g stroke="#1F1A17" stroke-width="4" stroke-linejoin="round" stroke-linecap="round">
      <ellipse cx="100" cy="176" rx="30" ry="5" fill="#1F1A17" opacity="0.2" stroke="none"/>
      <path d="M78 110 C50 90 20 90 10 110 C30 112 50 122 76 124 Z" fill="#F5F5F5"/>
      <path d="M122 110 C150 90 180 90 190 110 C170 112 150 122 124 124 Z" fill="#F5F5F5"/>
      <path d="M30 104 c10 2 24 8 40 14 M28 110 c12 0 26 4 44 10" fill="none" stroke="#B0BEC5" stroke-width="2"/>
      <path d="M170 104 c-10 2 -24 8 -40 14 M172 110 c-12 0 -26 4 -44 10" fill="none" stroke="#B0BEC5" stroke-width="2"/>
      <circle cx="100" cy="118" r="26" fill="#FFC107"/>
      <path d="M100 92 v52 M74 118 h52" fill="none" stroke="#C79100" stroke-width="2"/>
      <circle cx="92" cy="110" r="5" fill="#FFFFFF" stroke="none" opacity="0.8"/>
    </g>
  </symbol>

  <symbol id="obj-frog" viewBox="0 0 200 200">
    <g stroke="#1F1A17" stroke-width="4" stroke-linejoin="round" stroke-linecap="round">
      <path d="M44 180 H156 L150 136 H50 Z" fill="#5D4037"/>
      <rect x="54" y="142" width="92" height="10" fill="#FFD166" stroke="none"/>
      <path d="M60 134 l-14 10 M140 134 l14 10" fill="none" stroke-width="7"/>
      <path d="M60 134 l-14 10 M140 134 l14 10" fill="none" stroke="#6D4C41" stroke-width="2.5"/>
      <ellipse cx="100" cy="118" rx="42" ry="26" fill="#6D4C41"/>
      <circle cx="80" cy="96" r="12" fill="#6D4C41"/>
      <circle cx="120" cy="96" r="12" fill="#6D4C41"/>
      <circle cx="80" cy="96" r="5" fill="#FFFFFF" stroke="none"/>
      <circle cx="120" cy="96" r="5" fill="#FFFFFF" stroke="none"/>
      <circle cx="81" cy="97" r="2.5" fill="#1F1A17" stroke="none"/>
      <circle cx="121" cy="97" r="2.5" fill="#1F1A17" stroke="none"/>
      <path d="M88 124 q12 6 24 0" fill="none" stroke-width="2.5"/>
    </g>
  </symbol>

  <symbol id="obj-scroll" viewBox="0 0 200 200">
    <g stroke="#1F1A17" stroke-width="4" stroke-linejoin="round" stroke-linecap="round">
      <path d="M40 108 H160 V170 H40 Z" fill="#F3E5AB"/>
      <path d="M52 124 h96 M52 138 h70 M52 152 h86" fill="none" stroke="#B59F5B" stroke-width="3"/>
      <rect x="30" y="98" width="140" height="22" rx="11" fill="#E6D28F"/>
      <rect x="30" y="158" width="140" height="22" rx="11" fill="#E6D28F"/>
      <circle cx="30" cy="109" r="9" fill="#C9B46A"/>
      <circle cx="170" cy="109" r="9" fill="#C9B46A"/>
      <circle cx="30" cy="169" r="9" fill="#C9B46A"/>
      <circle cx="170" cy="169" r="9" fill="#C9B46A"/>
      <circle cx="140" cy="140" r="9" fill="#C62828"/>
    </g>
  </symbol>

  <symbol id="obj-spellbook" viewBox="0 0 200 200">
    <g stroke="#1F1A17" stroke-width="4" stroke-linejoin="round" stroke-linecap="round">
      <path d="M70 60 H150 V180 H70 Z" fill="#F3E5AB"/>
      <path d="M142 70 v100 M146 70 v100" fill="none" stroke="#C9B46A" stroke-width="2"/>
      <path d="M52 64 H136 V180 H52 a6 6 0 0 1 -6 -6 V70 a6 6 0 0 1 6 -6 Z" fill="#4A148C"/>
      <rect x="46" y="64" width="14" height="116" fill="#311B92" stroke="none"/>
      <line x1="60" y1="64" x2="60" y2="180"/>
      <path d="M94 104 l6 -12 6 12 12 6 -12 6 -6 12 -6 -12 -12 -6 Z" fill="#FFD166"/>
      <rect x="128" y="112" width="16" height="22" rx="3" fill="#B8860B"/>
      <path d="M78 150 h40 M78 160 h30" fill="none" stroke="#FFD166" stroke-width="3"/>
      <g style="display:var(--dmg1,none)">
        <path d="M150 90 l20 -14 l-6 20 l14 -4" fill="#F3E5AB"/>
        <path d="M110 70 l8 10 l-6 8" fill="none"/>
      </g>
    </g>
  </symbol>

  <symbol id="obj-hat" viewBox="0 0 200 200">
    <g stroke="#1F1A17" stroke-width="4" stroke-linejoin="round" stroke-linecap="round">
      <path d="M62 152 C70 110 80 70 92 30 C104 44 112 70 114 90 C124 110 130 130 138 152 Z" fill="#795548"/>
      <path d="M92 30 C96 50 90 60 98 72" fill="none" stroke-width="3"/>
      <path d="M70 120 c20 -4 40 -4 60 0" fill="none" stroke="#5D4037" stroke-width="3"/>
      <path d="M84 116 l10 -6 M116 116 l-10 -6" fill="none" stroke-width="3"/>
      <path d="M78 134 q22 10 44 0" fill="none" stroke-width="4"/>
      <ellipse cx="100" cy="160" rx="72" ry="20" fill="#5D4037"/>
      <g fill="none" style="display:var(--dmg1,none)">
        <path d="M100 80 l10 14 l-8 12 l10 14" stroke="#4E342E"/>
        <path d="M76 100 l8 10 l-6 8"/>
      </g>
    </g>
  </symbol>

  <symbol id="obj-cauldron" viewBox="0 0 200 200">
    <g stroke="#1F1A17" stroke-width="4" stroke-linejoin="round" stroke-linecap="round">
      <path d="M70 50 c-6 10 6 14 0 24 M100 40 c-6 10 6 14 0 24 M130 48 c-6 10 6 14 0 24" fill="none" stroke="#AED581" stroke-width="3" opacity="0.8"/>
      <path d="M62 180 l8 -12 h16 l4 12 Z M110 180 l4 -12 h16 l8 12 Z" fill="#263238"/>
      <path d="M40 96 C40 150 60 180 100 180 C140 180 160 150 160 96 Z" fill="#37474F"/>
      <path d="M30 94 h-10 M170 94 h10" stroke-width="6"/>
      <rect x="30" y="84" width="140" height="18" rx="6" fill="#455A64"/>
      <ellipse cx="100" cy="86" rx="56" ry="10" fill="#7CB342"/>
      <circle cx="80" cy="80" r="6" fill="#AED581"/>
      <circle cx="110" cy="72" r="8" fill="#AED581"/>
      <circle cx="128" cy="78" r="4" fill="#AED581"/>
      <g fill="none" style="display:var(--dmg1,none)">
        <path d="M120 120 l8 10 l-10 10 l12 12"/>
      </g>
      <g style="display:var(--dmg2,none)">
        <path d="M60 110 l-8 10 l10 12 l-8 12" fill="none"/>
        <path d="M50 92 c-10 10 -14 20 -6 26 c6 -10 10 -16 6 -26 Z" fill="#7CB342"/>
      </g>
    </g>
  </symbol>

  <symbol id="obj-armor" viewBox="0 0 200 200">
    <g stroke="#1F1A17" stroke-width="4" stroke-linejoin="round" stroke-linecap="round">
      <rect x="56" y="166" width="88" height="14" rx="4" fill="#5D4037"/>
      <path d="M78 110 h14 v58 H78 Z M108 110 h14 v58 h-14 Z" fill="#9AA5B1"/>
      <path d="M54 76 h-14 v30 h14 M146 76 h14 v30 h-14" fill="#9AA5B1"/>
      <path d="M40 106 l-8 20 h16 Z M160 106 l8 20 h-16 Z" fill="#9AA5B1"/>
      <path d="M60 70 H140 L146 118 H54 Z" fill="#B0BEC5"/>
      <path d="M100 74 v44" fill="none" stroke-width="2"/>
      <path d="M86 128 l14 -8 14 8 -14 20 Z" fill="#C62828"/>
      <path d="M100 56 c-20 0 -28 14 -28 30 h56 c0 -16 -8 -30 -28 -30 Z" fill="#B0BEC5"/>
      <path d="M100 36 c0 -14 6 -22 10 -24 c-2 6 2 12 -2 24" fill="#C62828"/>
      <rect x="72" y="36" width="56" height="26" rx="12" fill="#B0BEC5"/>
      <path d="M78 52 h44" fill="none" stroke-width="2.5"/>
      <rect x="80" y="40" width="40" height="8" rx="2" fill="#1F1A17" stroke="none"/>
      <g fill="none" style="display:var(--dmg1,none)">
        <path d="M70 80 l8 10 l-6 10 l8 10"/>
      </g>
      <g fill="none" style="display:var(--dmg2,none)">
        <path d="M126 76 l-8 10 l8 8 l-8 12"/>
        <path d="M84 42 l6 6 l-4 6"/>
      </g>
      <g style="display:var(--dmg3,none)">
        <path d="M150 80 l16 20 l-14 6 Z" fill="#9AA5B1"/>
        <path d="M60 140 l-8 14 l14 -4 Z" fill="#9AA5B1"/>
        <path d="M100 118 l-6 12 l12 0 Z" fill="none"/>
      </g>
      <g fill="#FFD400" style="display:var(--dmg4,none)">
        <path d="M46 30 l-8 14 h8 l-6 14 l14 -18 h-8 l6 -10 Z"/>
        <path d="M150 30 l-6 10 h6 l-4 10 l10 -13 h-6 l4 -7 Z"/>
      </g>
    </g>
  </symbol>
</svg>
