<svg xmlns="http://www.w3.org/2000/svg">
  <symbol id="paw-marine" viewBox="0 0 240 320" overflow="visible">
    <g stroke-linecap="round" stroke-linejoin="round">
      <g fill="#1F1A17" stroke="#1F1A17">
        <line x1="92" y1="100" x2="270" y2="420" stroke-width="100"/>
        <circle cx="78" cy="78" r="60"/>
        <circle cx="31" cy="61" r="20"/><circle cx="49" cy="37" r="20"/><circle cx="78" cy="28" r="20"/><circle cx="107" cy="37" r="20"/>
      </g>
      <g fill="#5B7A99" stroke="#5B7A99">
        <line x1="92" y1="100" x2="270" y2="420" stroke-width="92"/>
        <circle cx="78" cy="78" r="56"/>
      </g>
      <g fill="#7F9BB8" stroke="#7F9BB8">
        <circle cx="31" cy="61" r="16"/><circle cx="49" cy="37" r="16"/><circle cx="78" cy="28" r="16"/><circle cx="107" cy="37" r="16"/>
      </g>
      <g stroke="#3F5873" stroke-width="5" stroke-linecap="butt">
        <line x1="113" y1="214" x2="178" y2="178"/>
        <line x1="150" y1="278" x2="213" y2="243"/>
        <line x1="176" y1="326" x2="240" y2="290"/>
      </g>
      <line x1="97" y1="147" x2="197" y2="326" stroke="#FF8C1A" stroke-width="8" opacity="0.9"/>
      <g fill="#C9D6E5" stroke="#1F1A17" stroke-width="2">
        <circle cx="128" cy="236" r="4"/><circle cx="165" cy="214" r="4"/><circle cx="168" cy="304" r="4"/><circle cx="205" cy="282" r="4"/>
      </g>
      <rect x="58" y="68" width="40" height="12" rx="6" fill="#FF8C1A" stroke="#1F1A17" stroke-width="3"/>
      <g stroke="#1F1A17" stroke-width="4" fill="none">
        <path d="M54 60 L38 47 M69 49 L63 30 M87 49 L93 30"/>
      </g>
    </g>
  </symbol>

  <symbol id="paw-wizard" viewBox="0 0 240 320" overflow="visible">
    <g stroke-linecap="round" stroke-linejoin="round">
      <line x1="80" y1="70" x2="6" y2="-10" stroke="#1F1A17" stroke-width="11"/>
      <line x1="80" y1="70" x2="6" y2="-10" stroke="#6D4C41" stroke-width="6"/>
      <path d="M6 -10 l3 7 7 1 -5 5 1 7 -6 -3 -6 3 1 -7 -5 -5 7 -1 Z" fill="#FFD166" stroke="#1F1A17" stroke-width="2"/>
      <g fill="#1F1A17" stroke="#1F1A17">
        <line x1="92" y1="100" x2="270" y2="420" stroke-width="96"/>
        <circle cx="78" cy="78" r="58"/>
        <circle cx="31" cy="61" r="20"/><circle cx="49" cy="37" r="20"/><circle cx="78" cy="28" r="20"/><circle cx="107" cy="37" r="20"/>
      </g>
      <g fill="#2E2A3A" stroke="#2E2A3A">
        <line x1="92" y1="100" x2="270" y2="420" stroke-width="88"/>
        <circle cx="78" cy="78" r="54"/>
        <circle cx="31" cy="61" r="16"/><circle cx="49" cy="37" r="16"/><circle cx="78" cy="28" r="16"/><circle cx="107" cy="37" r="16"/>
      </g>
      <g stroke-linecap="butt">
        <line x1="80" y1="157" x2="147" y2="120" stroke="#7A1F2B" stroke-width="16"/>
        <line x1="88" y1="171" x2="155" y2="134" stroke="#D4A017" stroke-width="12"/>
        <line x1="96" y1="186" x2="163" y2="149" stroke="#7A1F2B" stroke-width="16"/>
      </g>
      <path d="M44 92 a36 36 0 0 1 10 -30" fill="none" stroke="#4A4560" stroke-width="7" opacity="0.8"/>
      <g stroke="#4A4560" stroke-width="4" fill="none">
        <path d="M54 60 L38 47 M69 49 L63 30 M87 49 L93 30"/>
      </g>
    </g>
  </symbol>

  <symbol id="paw-sherlock" viewBox="0 0 240 320" overflow="visible">
    <g stroke-linecap="round" stroke-linejoin="round">
      <line x1="72" y1="64" x2="30" y2="20" stroke="#1F1A17" stroke-width="14"/>
      <line x1="72" y1="64" x2="30" y2="20" stroke="#5D4037" stroke-width="8"/>
      <circle cx="8" cy="-4" r="34" fill="#B3E5FC" fill-opacity="0.45" stroke="#1F1A17" stroke-width="8"/>
      <circle cx="8" cy="-4" r="34" fill="none" stroke="#B8860B" stroke-width="4"/>
      <path d="M-10 -14 a22 22 0 0 1 12 -14" fill="none" stroke="#FFFFFF" stroke-width="4" opacity="0.8"/>
      <g fill="#1F1A17" stroke="#1F1A17">
        <line x1="92" y1="100" x2="270" y2="420" stroke-width="96"/>
        <circle cx="78" cy="78" r="58"/>
        <circle cx="31" cy="61" r="20"/><circle cx="49" cy="37" r="20"/><circle cx="78" cy="28" r="20"/><circle cx="107" cy="37" r="20"/>
      </g>
      <g fill="#8A98A8" stroke="#8A98A8">
        <line x1="92" y1="100" x2="270" y2="420" stroke-width="88"/>
        <circle cx="78" cy="78" r="54"/>
        <circle cx="31" cy="61" r="16"/><circle cx="49" cy="37" r="16"/><circle cx="78" cy="28" r="16"/><circle cx="107" cy="37" r="16"/>
      </g>
      <line x1="78" y1="160" x2="150" y2="121" stroke="#8D6E4C" stroke-width="30" stroke-linecap="butt"/>
      <g stroke="#6B4F35" stroke-width="2" stroke-linecap="butt">
        <line x1="86" y1="150" x2="146" y2="117"/><line x1="92" y1="160" x2="152" y2="127"/>
        <line x1="96" y1="138" x2="108" y2="160"/><line x1="112" y1="130" x2="124" y2="152"/><line x1="128" y1="121" x2="140" y2="143"/>
      </g>
      <g stroke="#1F1A17" stroke-width="4" fill="none">
        <path d="M54 60 L38 47 M69 49 L63 30 M87 49 L93 30"/>
      </g>
    </g>
  </symbol>
</svg>
